<svg xmlns="http://www.w3.org/2000/svg" width="182" height="17" viewBox="0 0 182 17">
    <g fill="none" fill-rule="evenodd">
        <g fill="#000" fill-rule="nonzero">
            <g>
                <path d="M128.817 9.193l-1.648-3.962c-.079-.08-.079-.159-.079-.159-.078 0-.078 0-.078.159l-1.492 3.962h3.297zm-3.69.872c-.156.555-.549 1.427-.549 1.902 0 .714.55.793 1.413.793v.713h-3.925v-.713c.785 0 1.02-.317 1.413-1.11l2.905-7.291c.314-.634.55-1.347.706-1.981h1.57c.079.396.314 1.188.785 2.219l2.67 6.182c.627 1.505 1.02 1.822 1.805 1.902v.713h-5.574v-.713c.864 0 1.413-.08 1.413-.714s-.47-1.426-.706-1.902h-3.925zM139.258 6.657c0-.792-.393-1.11-1.1-1.11-1.255 0-1.805 1.427-1.805 3.567 0 1.268.471 2.933 1.806 2.933.314 0 .785-.159 1.099-.397V6.657zm.235 6.975v-.872c0-.08 0-.159-.078-.159-.079 0-.079.08-.157.08-.55.475-1.178.95-2.198.95-2.277 0-3.219-1.901-3.219-4.438 0-2.06 1.256-4.596 3.768-4.596.785 0 1.413.158 1.727.317V2.615c0-.634-.314-.792-1.177-.871V1.11l3.61-.317v11.095c0 .634.315.713.943.793v.792l-3.219.159zM151.896 5.469c-.628.079-.863.396-1.256 1.268l-2.747 6.736h-1.178l-2.669-6.895c-.314-.792-.47-1.03-1.177-1.11v-.792h4.553v.872c-.864 0-1.02.079-1.02.555 0 .158.156.475.235.634l1.334 3.487c.157.396.157.396.236.396.078 0 .078-.08.235-.475l1.1-3.012c.078-.317.235-.713.235-.951 0-.555-.314-.634-.942-.634v-.872h3.218v.793h-.157zM154.565 3.566c.864 0 1.492-.554 1.492-1.268 0-.713-.707-1.268-1.492-1.268s-1.491.634-1.491 1.268.628 1.268 1.491 1.268M152.524 13.473v-.872c.628 0 .942-.158.942-.792v-5.31c0-.634-.314-.793-.942-.872v-.713l3.376-.317v7.212c0 .634.314.713.942.792v.872h-4.318zM158.019 10.382h.707c.157.634.706 2.378 2.276 2.378.942 0 1.413-.476 1.413-1.189 0-1.981-4.553-1.03-4.553-4.359 0-1.426 1.099-2.695 2.983-2.695 1.178 0 1.649.397 1.884.397.236 0 .393-.159.471-.238h.706v2.695h-.863c-.157-.793-.706-1.982-2.198-1.982-.706 0-1.177.476-1.177.951 0 1.823 4.71 1.03 4.71 4.28 0 1.823-1.492 2.932-3.533 2.932-.942 0-1.648-.396-1.884-.396-.157 0-.314.08-.392.238h-.707v-3.012h.157zM167.831 9.114c0 1.902.157 3.646 1.413 3.646s1.413-1.744 1.413-3.646-.157-3.645-1.413-3.645c-1.256-.08-1.413 1.743-1.413 3.645m5.417 0c0 2.299-1.335 4.518-4.004 4.518-2.669 0-4.003-2.22-4.003-4.518 0-2.298 1.334-4.517 4.003-4.517 2.67 0 4.004 2.14 4.004 4.517M174.66 6.499c0-.634-.313-.793-.941-.872v-.713l3.297-.317v1.585c0 .08 0 .08.078.08.079 0 .079-.08.236-.318.628-.872 1.177-1.347 2.04-1.347.943 0 1.65.634 1.65 1.585 0 .872-.55 1.426-1.335 1.426-.393 0-.628-.079-.785-.158v-.238c0-.475-.157-.872-.55-.872-.706 0-1.256 1.506-1.256 2.774v2.616c0 .713.314.871 1.335.871v.872h-4.789v-.872c.628 0 .942-.158.942-.792l.079-5.31zM10.126 6.261h-.942c-.157-1.189-.392-3.09-2.747-3.09-2.198 0-3.376 2.218-3.376 4.596 0 2.536.785 4.834 3.69 4.834 1.57 0 2.59-.95 3.297-1.585l.706.634c-.706.793-2.198 2.061-4.553 2.061C2.67 13.711 0 11.73 0 8.084 0 4.28 2.826 2.378 6.358 2.378c1.335 0 2.905.158 3.768.396V6.26zM16.485 8.876c-1.884.714-2.67 1.03-2.67 2.378 0 .634.393 1.268 1.178 1.268 1.1 0 1.413-1.03 1.413-2.298V8.876h.079zm3.218 4.597c-.47.08-1.334.238-1.805.238-.942 0-1.178-.317-1.335-.713-.078-.08-.078-.238-.078-.238-.079 0-.079.08-.314.238-.55.396-1.335.713-2.277.713-1.648 0-2.512-1.03-2.512-2.457 0-1.744 1.178-2.06 3.062-2.615 1.962-.555 2.04-.555 2.04-1.665 0-1.03-.235-1.505-1.098-1.505-.785 0-1.1.475-1.1 1.188 0 .238.08.476.158.714-.314.317-.864.475-1.335.475-.785 0-1.256-.475-1.256-1.268 0-1.347 1.57-1.981 3.219-1.981 2.12 0 3.61.555 3.61 2.853v4.121c0 1.03.158 1.11.943 1.11l.078.792zM25.277 13.473v-.872c.47 0 .785-.158.785-.792V7.688c0-.951-.393-1.427-1.178-1.427-.628 0-1.099.476-1.334.634v4.993c0 .634.314.713.785.793v.871h-4.082v-.871c.55 0 .863-.159.863-.793v-5.39c0-.633-.314-.792-.942-.871v-.634l3.376-.317v1.189s0 .08.078.08c.079 0 .079 0 .236-.16.55-.554 1.334-1.03 2.355-1.03 1.805 0 2.276 1.348 2.276 3.25v3.962c0 .634.314.714.864.793v.872h-4.082v-.159zM37.601 10.779c-.47 1.03-1.334 2.853-3.925 2.853-2.512 0-4.003-1.585-4.003-4.2 0-2.854 1.727-4.835 4.553-4.835 1.805 0 3.14.713 3.14 2.06 0 .714-.471 1.348-1.492 1.348-.47 0-.863-.159-1.177-.317.078-.238.078-.397.078-.634 0-.714-.157-1.585-1.02-1.585-1.492 0-1.806 1.822-1.806 3.249 0 1.902.942 3.17 2.512 3.17 1.02 0 1.727-.475 2.355-1.585l.785.476zM43.489 8.242c0-1.188-.157-2.694-1.413-2.694s-1.413 1.506-1.413 2.694h2.826zm-2.826.793c0 1.506.628 3.09 2.669 3.09.942 0 1.648-.633 2.198-1.188l.55.555c-.707 1.189-1.885 2.14-3.847 2.14-2.983 0-4.004-2.22-4.004-4.36 0-2.456 1.335-4.596 4.004-4.596 2.669 0 3.69 2.14 3.69 4.359h-5.26zM47.57 6.499c0-.634-.313-.793-.941-.872v-.634l3.297-.317v1.585c0 .08 0 .08.078.08.079 0 .079-.08.236-.318.628-.871 1.177-1.347 2.04-1.347.943 0 1.649.634 1.649 1.585 0 .872-.55 1.427-1.334 1.427-.393 0-.628-.08-.785-.159v-.317c0-.475-.157-.872-.55-.872-.706 0-1.256 1.506-1.256 2.774v2.616c0 .713.314.871 1.335.871v.872H46.55v-.872c.628 0 .942-.158.942-.792l.079-5.31zM58.953 13.473v-.713c1.334-.08 1.648-.317 1.648-1.585V3.408c-1.884 0-2.669.713-3.061 2.536h-.864l.157-3.408c.393 0 1.021.08 1.649.08.628 0 1.413.079 2.12.079h2.982c1.413 0 2.905-.08 3.768-.159l-.078 3.408h-.864c-.47-1.823-1.177-2.536-3.061-2.536v7.767c0 1.268.314 1.506 1.648 1.585v.713h-6.044zM72.533 13.473v-.872c.471 0 .785-.158.785-.792V7.688c0-.951-.392-1.427-1.177-1.427-.628 0-1.1.476-1.335.634v4.993c0 .634.314.713.785.793v.871H67.51v-.871c.55 0 .864-.159.864-.793V2.695c0-.634-.314-.793-.942-.872v-.634l3.375-.317v4.834c0 .08 0 .08.079.08.078 0 .078 0 .235-.238.393-.396 1.256-.951 2.277-.951 1.805 0 2.276 1.347 2.276 3.25v3.962c0 .634.314.713.864.792v.872h-4.004zM82.189 8.242c0-1.188-.157-2.694-1.413-2.694s-1.413 1.506-1.413 2.694h2.826zm-2.905.793c0 1.506.628 3.09 2.67 3.09.941 0 1.648-.633 2.197-1.188l.55.555c-.707 1.189-1.884 2.14-3.847 2.14-2.983 0-4.003-2.22-4.003-4.36 0-2.456 1.334-4.596 4.003-4.596 2.67 0 3.69 2.14 3.69 4.359h-5.26zM86.27 6.499c0-.634-.313-.793-.941-.872v-.634l3.297-.317v1.585c0 .08 0 .08.078.08.079 0 .079-.08.236-.318.628-.871 1.177-1.347 2.04-1.347.943 0 1.65.634 1.65 1.585 0 .872-.55 1.427-1.335 1.427-.393 0-.628-.08-.785-.159v-.317c0-.475-.157-.872-.55-.872-.706 0-1.256 1.506-1.256 2.774v2.616c0 .713.314.871 1.335.871v.872H85.25v-.872c.628 0 .942-.158.942-.792l.079-5.31zM97.889 8.876c-1.884.714-2.67 1.03-2.67 2.378 0 .634.393 1.268 1.178 1.268 1.1 0 1.413-1.03 1.413-2.298l.079-1.348zm3.14 4.597c-.471.08-1.335.238-1.806.238-.942 0-1.177-.317-1.334-.713-.079-.08-.079-.238-.079-.238-.078 0-.078.08-.314.238-.55.396-1.334.713-2.276.713-1.649 0-2.512-1.03-2.512-2.457 0-1.744 1.177-2.06 3.061-2.615 2.041-.555 2.12-.555 2.12-1.665 0-1.03-.236-1.505-1.1-1.505-.784 0-1.098.475-1.098 1.188 0 .238.078.476.157.714-.314.317-.864.475-1.335.475-.785 0-1.256-.475-1.256-1.268 0-1.347 1.57-1.981 3.219-1.981 2.12 0 3.61.555 3.61 2.853v4.121c0 1.03.158 1.11.943 1.11v.792zM104.64 11.809c0 .555.314.95 1.02.95 1.256 0 1.884-1.346 1.884-3.328 0-1.981-.706-3.09-1.805-3.09-.471 0-.864.237-1.1.475v4.993zm-3.376 4.914v-.872c.628 0 .942-.159.942-.793v-8.56c0-.633-.314-.792-.942-.871v-.634l3.376-.317v.872c0 .079 0 .079.078.079 0 0 .079-.08.314-.238.471-.396 1.02-.713 1.884-.713 2.12 0 3.297 1.902 3.297 4.2 0 2.774-1.57 4.835-3.925 4.835-.628 0-1.177-.159-1.57-.396v1.743c0 .634.314.714 1.335.793v.872h-4.789zM119.476 5.706c-.628.08-.864.317-1.413 1.506l-3.454 7.688c-.55 1.189-1.413 1.743-2.277 1.743-.942 0-1.491-.792-1.491-1.426 0-.555.235-.951.471-1.348.392.397.863.714 1.413.714s.942-.159 1.256-.634c.392-.476.392-.634.392-.714 0-.079 0-.158-.078-.237l-2.826-6.182c-.393-.793-.55-1.03-1.178-1.11v-.792h4.553v.872c-.706 0-.942.079-.942.475 0 .238.079.476.314 1.03l1.178 2.537c.157.317.157.396.314.396.078 0 .157-.08.314-.555l.863-2.298c.157-.397.314-.872.314-1.03 0-.476-.314-.635-1.02-.635v-.792h3.218l.079.792z" transform="translate(-48 -17) translate(48 17)"/>
            </g>
        </g>
    </g>
</svg>
