<svg xmlns="http://www.w3.org/2000/svg" width="40" height="40" viewBox="0 0 40 40">
    <g fill="none" fill-rule="evenodd">
        <g>
            <g>
                <path fill="#FFF" fill-rule="nonzero" d="M37.318 9.96c-1.788-3.063-4.214-5.49-7.278-7.278C26.975.894 23.63 0 20 0c-3.628 0-6.974.894-10.039 2.682-3.064 1.788-5.49 4.214-7.278 7.279C.894 13.025 0 16.37 0 20c0 3.628.894 6.974 2.682 10.04 1.789 3.063 4.215 5.49 7.28 7.278C13.025 39.106 16.371 40 20 40c3.629 0 6.975-.894 10.04-2.682 3.064-1.788 5.49-4.215 7.278-7.279C39.106 26.975 40 23.63 40 20c0-3.629-.894-6.975-2.682-10.04z" transform="translate(-71 -71) translate(71 71)"/>
                <path fill="#3CC5E7" d="M19.271 8.32L8.058 18.404c-.189.189-.095.472.188.472h2.356v9.611c0 .377.282.66.565.66h6.314c.377 0 .66-.283.66-.66v-6.22h2.638v6.22c0 .377.282.66.565.66h6.408c.283 0 .565-.283.565-.66v-9.611h2.356c.283 0 .377-.283.188-.472L19.648 8.321c-.094-.095-.283-.095-.377 0zm2.827 12.062H16.82c-.283 0-.565.283-.565.66v6.125h-3.77V16.99l6.973-6.314 6.974 6.314v10.177h-3.77v-6.125c0-.377-.282-.66-.565-.66z" transform="translate(-71 -71) translate(71 71)"/>
            </g>
        </g>
    </g>
</svg>
