<svg xmlns="http://www.w3.org/2000/svg" width="158" height="28" viewBox="0 0 158 28">
    <g fill="none" fill-rule="evenodd">
        <g>
            <g>
                <path d="M0 0H158V28H0z" transform="translate(-1160 -13) translate(1160 13)"/>
                <g transform="translate(-1160 -13) translate(1160 13) translate(138 8)">
                    <rect width="13" height="9" x=".5" y="1.5" fill="#FFF" stroke="#000" rx="1"/>
                    <rect width="7" height="11" x="3.5" y=".5" fill="#FFF" stroke="#000" rx="1"/>
                    <rect width="1" height="1" x="2.5" y="3.5" stroke="#000" rx=".5"/>
                    <rect width="1" height="1" x="10.5" y="3.5" stroke="#000" rx=".5"/>
                    <rect width="1" height="1" x="2.5" y="5.5" stroke="#000" rx=".5"/>
                    <rect width="1" height="1" x="10.5" y="5.5" stroke="#000" rx=".5"/>
                    <rect width="1" height="1" x="10.5" y="7.5" stroke="#000" rx=".5"/>
                    <path fill="#000" fill-rule="nonzero" d="M7 3c.828 0 1.5.672 1.5 1.5 0 .46-.207.872-.533 1.147.864.286 1.458 1.001 1.526 2.177L9.498 8v.5c0 .276-.224.5-.5.5l-.09-.008H5.093c-.03.005-.06.008-.09.008-.245 0-.45-.177-.492-.41l-.008-.09V8c0-1.248.641-2.034 1.542-2.346C5.71 5.38 5.5 4.964 5.5 4.5 5.5 3.672 6.172 3 7 3zm0 3.5c-.723 0-1.415.316-1.491 1.35L5.503 8v.008h2.994V8c0-1.105-.774-1.5-1.497-1.5zM7 4c-.276 0-.5.224-.5.5s.224.5.5.5.5-.224.5-.5S7.276 4 7 4z"/>
                </g>
                <path fill="#000" fill-rule="nonzero" d="M9.79 19v-4.71h4.68v-1.02H9.79V9.34h5.49V8.32H8.65V19h1.14zm5.81 0l.855-2.415h4.665L21.975 19h1.215L19.275 8.32h-.96L14.385 19H15.6zm5.19-3.405H16.8l2.01-5.64 1.98 5.64zm6.605 3.495c1.92 0 3.33-1.185 3.705-3.18h-1.14c-.285 1.32-1.23 2.16-2.565 2.16-.72 0-1.35-.255-1.845-.75-.675-.69-.75-1.47-.75-3.66 0-2.19.075-2.97.75-3.66.495-.495 1.125-.75 1.845-.75 1.335 0 2.25.84 2.535 2.16h1.17c-.375-1.995-1.77-3.18-3.705-3.18-1.11 0-2.01.39-2.67 1.05-1.005 1.005-1.065 1.935-1.065 4.38s.06 3.375 1.065 4.38c.66.66 1.56 1.05 2.67 1.05zM39.55 19v-1.02h-5.49v-3.855h4.68v-1.02h-4.68V9.34h5.49V8.32h-6.63V19h6.63zm8.035.09c1.11 0 1.995-.39 2.655-1.05.965-.965 1.073-1.86 1.08-4.094v-.286c0-2.445-.075-3.375-1.08-4.38-.66-.66-1.545-1.05-2.655-1.05-1.11 0-2.01.39-2.67 1.05-1.005 1.005-1.065 1.935-1.065 4.38s.06 3.375 1.065 4.38c.66.66 1.56 1.05 2.67 1.05zm0-1.02c-.72 0-1.35-.255-1.845-.75-.675-.69-.75-1.47-.75-3.66 0-2.19.075-2.97.75-3.66.495-.495 1.125-.75 1.845-.75s1.35.255 1.845.75c.647.661.743 1.405.75 3.393v.267c0 2.19-.075 2.97-.75 3.66-.495.495-1.125.75-1.845.75zm6.86.93v-4.71h4.68v-1.02h-4.68V9.34h5.49V8.32h-6.63V19h1.14zm13.03 0V9.34h3.09V8.32h-7.32v1.02h3.09V19h1.14zM73 19v-4.875h5.07V19h1.14V8.32h-1.14v4.785H73V8.32h-1.14V19H73zm15.23 0v-1.02h-5.49v-3.855h4.68v-1.02h-4.68V9.34h5.49V8.32H81.6V19h6.63zm5.845 0v-4.71h4.68v-1.02h-4.68V9.34h5.49V8.32h-6.63V19h1.14zm5.81 0l.855-2.415h4.665L106.26 19h1.215L103.56 8.32h-.96L98.67 19h1.215zm5.19-3.405h-3.99l2.01-5.64 1.98 5.64zm6.605 3.495c1.92 0 3.33-1.185 3.705-3.18h-1.14c-.285 1.32-1.23 2.16-2.565 2.16-.72 0-1.35-.255-1.845-.75-.675-.69-.75-1.47-.75-3.66 0-2.19.075-2.97.75-3.66.495-.495 1.125-.75 1.845-.75 1.335 0 2.25.84 2.535 2.16h1.17c-.375-1.995-1.77-3.18-3.705-3.18-1.11 0-2.01.39-2.67 1.05-1.005 1.005-1.065 1.935-1.065 4.38s.06 3.375 1.065 4.38c.66.66 1.56 1.05 2.67 1.05zm8.36-.09V9.34h3.09V8.32h-7.32v1.02h3.09V19h1.14zm7.13.09c2.235 0 3.69-1.155 3.69-3.03 0-.885-.33-1.605-.9-2.1-.48-.435-.945-.615-1.935-.765L126.78 13c-.555-.09-1.065-.27-1.395-.555-.33-.285-.48-.72-.48-1.245 0-1.2.825-1.995 2.265-1.995 1.11 0 1.845.315 2.49.93l.735-.735c-.915-.81-1.815-1.17-3.18-1.17-2.115 0-3.42 1.185-3.42 3 0 .87.285 1.53.825 2.01.48.42 1.11.675 1.95.81l1.245.18c.765.12 1.065.225 1.395.525.36.315.525.765.525 1.335 0 1.26-.96 1.98-2.535 1.98-1.2 0-2.025-.27-2.91-1.155l-.765.765c.99 1.005 2.055 1.41 3.645 1.41z" transform="translate(-1160 -13) translate(1160 13)"/>
            </g>
        </g>
    </g>
</svg>
