<svg xmlns="http://www.w3.org/2000/svg" width="26" height="60" viewBox="0 0 26 60">
    <g fill="none" fill-rule="evenodd">
        <g fill="#FFF">
            <g>
                <path fill-rule="nonzero" d="M13 0c7.18 0 13 5.82 13 13v12c0 7.18-5.82 13-13 13S0 32.18 0 25V13C0 5.82 5.82 0 13 0zm0 2C6.925 2 2 6.925 2 13v12c0 6.075 4.925 11 11 11s11-4.925 11-11V13c0-6.075-4.925-11-11-11zm1 7v8h-2V9h2z" transform="translate(-212 -176) translate(212 176)"/>
            </g>
        </g>
    </g>
</svg>
